<?xml version="1.0" encoding="UTF-8"?>
<svg version="1.1" xmlns="http://www.w3.org/2000/svg" width="500" height="500">
<path d="M0 0 C0.80610718 -0.0066568 1.61221436 -0.0133136 2.44274902 -0.02017212 C4.14393843 -0.03027913 5.84516732 -0.03498974 7.54638672 -0.03466797 C10.14747259 -0.03904772 12.7468697 -0.07540333 15.34765625 -0.11328125 C17.00259838 -0.11914856 18.65754854 -0.12311853 20.3125 -0.125 C21.47670471 -0.14655655 21.47670471 -0.14655655 22.66442871 -0.16854858 C25.80168651 -0.14201538 28.14560451 0.02808116 30.8605957 1.66488647 C33.77138889 5.99471607 33.21196202 10.45932303 33.17382812 15.55859375 C33.1808374 16.70367401 33.18784668 17.84875427 33.19506836 19.02853394 C33.21269298 22.81874748 33.20100892 26.60821618 33.1875 30.3984375 C33.19019361 33.02872867 33.19407493 35.65901888 33.19909668 38.28930664 C33.20637172 43.803956 33.19678937 49.31839101 33.17773438 54.83300781 C33.1559656 61.20656417 33.16301709 67.5796087 33.18504 73.95315266 C33.20538571 80.08707272 33.203224 86.22076604 33.19151306 92.35470581 C33.1888411 94.96385774 33.19213192 97.5730227 33.20143127 100.18215942 C33.21156833 103.82622076 33.19613374 107.46929369 33.17382812 111.11328125 C33.18192505 112.19600311 33.19002197 113.27872498 33.19836426 114.39425659 C33.11587506 121.65337995 33.11587506 121.65337995 30.85960388 125.00401306 C27.49679624 127.03682573 24.16326437 126.9268262 20.34765625 126.90234375 C19.54392075 126.90854233 18.74018524 126.91474091 17.91209412 126.92112732 C16.21509002 126.92821949 14.51801626 126.9250619 12.82104492 126.91235352 C10.23029882 126.89849926 7.64317476 126.93254687 5.05273438 126.97070312 C3.40104079 126.97165451 1.74934269 126.96979446 0.09765625 126.96484375 C-0.67331894 126.97810196 -1.44429413 126.99136017 -2.2386322 127.00502014 C-5.84489307 126.942891 -8.05149763 126.53471628 -11.05107117 124.49452209 C-14.43529203 119.83213863 -14.01415067 115.79323169 -13.92724609 110.16748047 C-13.92958252 109.04015503 -13.93191895 107.91282959 -13.93432617 106.75134277 C-13.93594061 103.02646526 -13.90190819 99.30282682 -13.8671875 95.578125 C-13.86039886 92.99171394 -13.85567619 90.40529669 -13.85293579 87.81887817 C-13.8422563 82.40005428 -13.81623725 76.9816654 -13.77587891 71.56298828 C-13.71901109 63.92069704 -13.6967195 56.27858356 -13.68059421 48.63611388 C-13.66663231 42.70009311 -13.64205501 36.76410855 -13.6171875 30.828125 C-13.61227673 29.55924313 -13.60736595 28.29036125 -13.60230637 26.98302841 C-13.58606883 23.4038251 -13.56266476 19.82474927 -13.53662109 16.24560547 C-13.53236115 15.17956085 -13.5281012 14.11351624 -13.52371216 13.01516724 C-13.51511169 12.04222717 -13.50651123 11.06928711 -13.49765015 10.06686401 C-13.49207785 9.2206996 -13.48650555 8.37453518 -13.48076439 7.50272942 C-13.34375 5.3359375 -13.34375 5.3359375 -12.34375 2.3359375 C-8.71386025 -0.41178323 -4.35137879 0.012478 0 0 Z " fill="#22242D" transform="translate(102.34375,184.6640625)"/>
<path d="M0 0 C0.78295441 -0.00428513 1.56590881 -0.00857025 2.37258911 -0.01298523 C4.02849359 -0.01872581 5.68442329 -0.01923078 7.34033203 -0.01489258 C9.8666522 -0.01173892 12.3917939 -0.0351718 14.91796875 -0.06054688 C16.52864436 -0.06282062 18.13932311 -0.06352301 19.75 -0.0625 C20.50223846 -0.07170975 21.25447693 -0.08091949 22.0295105 -0.09040833 C26.60081009 -0.0503433 29.64551998 0.1163381 33.0078125 3.30078125 C33.78884556 7.02337755 33.66886691 10.72698819 33.62304688 14.51757812 C33.62859589 15.67387222 33.6341449 16.83016632 33.63986206 18.02149963 C33.65170049 21.85459458 33.62733863 25.68651847 33.6015625 29.51953125 C33.59985249 32.17608334 33.59981263 34.83258873 33.60168457 37.48913574 C33.60163098 43.06109922 33.58186445 48.63272378 33.54980469 54.20458984 C33.51291082 60.64795647 33.50412885 67.09087906 33.5111022 73.53433752 C33.51740587 79.73072149 33.50665554 85.92695306 33.48713684 92.12330627 C33.48009067 94.76118728 33.47698426 97.39908177 33.47782898 100.03697205 C33.47603722 103.71955866 33.45470753 107.40150758 33.42773438 111.08398438 C33.43066498 112.1812233 33.43359558 113.27846222 33.43661499 114.40895081 C33.4252652 115.41002365 33.41391541 116.4110965 33.40222168 117.44250488 C33.39849297 118.31338997 33.39476425 119.18427505 33.39092255 120.0815506 C32.92510632 122.77987099 32.13227423 123.6296493 30.0078125 125.30078125 C26.87298563 126.86819468 23.5207935 126.48477049 20.078125 126.50390625 C19.29138397 126.50960632 18.50464294 126.5153064 17.69406128 126.5211792 C16.02798814 126.53063157 14.36189628 126.53716412 12.69580078 126.54101562 C10.14973227 126.55071678 7.60447257 126.58173503 5.05859375 126.61328125 C3.44010896 126.61981184 1.8216184 126.62506209 0.203125 126.62890625 C-0.5574118 126.64125305 -1.31794861 126.65359985 -2.10153198 126.6663208 C-5.26517672 126.65302311 -7.6095513 126.4992304 -10.44189453 125.03027344 C-13.17982758 121.9758612 -13.11775294 118.56730644 -13.12590027 114.60145569 C-13.13016525 113.66079758 -13.13443024 112.72013947 -13.13882446 111.75097656 C-13.13837128 110.72593018 -13.13791809 109.70088379 -13.13745117 108.64477539 C-13.14080978 107.55982285 -13.1441684 106.4748703 -13.14762878 105.35704041 C-13.15713628 101.76666116 -13.15908172 98.17632855 -13.16015625 94.5859375 C-13.16336868 92.0925647 -13.16673275 89.5991921 -13.17024231 87.1058197 C-13.17623287 81.87791643 -13.17812505 76.65002502 -13.17749023 71.42211914 C-13.17695578 66.05132082 -13.18400602 60.68059432 -13.19799805 55.30981445 C-13.21464543 48.82779442 -13.22154665 42.34583901 -13.22088051 35.86379814 C-13.22206178 33.392233 -13.22649178 30.92066721 -13.23421288 28.44911385 C-13.24399476 24.99472736 -13.24114184 21.54057173 -13.23510742 18.08618164 C-13.24072693 17.06315948 -13.24634644 16.04013733 -13.25213623 14.9861145 C-13.24794174 14.04263657 -13.24374725 13.09915863 -13.23942566 12.12709045 C-13.23997043 11.31096818 -13.24051519 10.49484591 -13.24107647 9.65399265 C-12.9465507 6.86929148 -12.25281478 4.79972882 -10.9921875 2.30078125 C-7.25859206 -0.18828238 -4.32393737 -0.00521081 0 0 Z " fill="#22242D" transform="translate(376.9921875,184.69921875)"/>
<path d="M0 0 C23 0 23 0 27 2 C28.47153423 4.94306846 28.15173972 7.57915681 28.17700195 10.86474609 C28.18357315 11.57062363 28.19014435 12.27650116 28.19691467 13.00376892 C28.21665295 15.34365948 28.22831062 17.68348589 28.23828125 20.0234375 C28.24235678 20.8219878 28.2464323 21.6205381 28.25063133 22.4432869 C28.27149312 26.66889437 28.28579503 30.89446934 28.29516602 35.12011719 C28.30623818 39.48732243 28.34064656 43.85401922 28.38033772 48.22104454 C28.40646444 51.57706662 28.41485425 54.93296674 28.41844749 58.28908157 C28.42332275 59.89905867 28.43496348 61.50902999 28.45348549 63.11890793 C28.47779719 65.37183877 28.47692748 67.62344338 28.4699707 69.87646484 C28.47877007 71.7993483 28.47877007 71.7993483 28.48774719 73.76107788 C28 77 28 77 24 81 C16.08 81 8.16 81 0 81 C0 54.27 0 27.54 0 0 Z " fill="#22242D" transform="translate(418,203)"/>
<path d="M0 0 C0 26.73 0 53.46 0 81 C-23 81 -23 81 -27 78 C-27.50793457 74.81213379 -27.50793457 74.81213379 -27.51757812 70.82226562 C-27.5245874 70.09512863 -27.53159668 69.36799164 -27.53881836 68.61882019 C-27.55642979 66.21424212 -27.5447655 63.81084012 -27.53125 61.40625 C-27.53394404 59.73620375 -27.53782572 58.06615904 -27.54284668 56.39611816 C-27.54874596 52.89560008 -27.54016528 49.39549018 -27.52148438 45.89501953 C-27.49869419 41.40545411 -27.51181503 36.91684508 -27.53577423 32.42731476 C-27.55022084 28.97862528 -27.54563154 25.53016296 -27.53526306 22.08146667 C-27.53259261 20.4260395 -27.53587673 18.77059178 -27.54518127 17.1151886 C-27.55532869 14.80214731 -27.5398737 12.49065976 -27.51757812 10.17773438 C-27.51439575 8.86107788 -27.51121338 7.54442139 -27.50793457 6.18786621 C-25.60962044 -5.72621059 -7.40726266 0 0 0 Z " fill="#22252D" transform="translate(81,203)"/>
<path d="M0 0 C2.97 0.33 5.94 0.66 9 1 C10.98 6.61 12.96 12.22 15 18 C16.8125377 12.45612022 16.8125377 12.45612022 18.58886719 6.90063477 C18.93933105 5.86894165 18.93933105 5.86894165 19.296875 4.81640625 C19.64250488 3.75595093 19.64250488 3.75595093 19.99511719 2.67407227 C21 1 21 1 22.90332031 0.23413086 C25.73267423 -0.08181586 28.22568206 0.43252588 31 1 C31.84124316 3.24732102 32.67314832 5.49738785 33.5 7.75 C33.73847656 8.38421875 33.97695313 9.0184375 34.22265625 9.671875 C35.44801758 13.03286607 36 15.36871587 36 19 C36.66 19 37.32 19 38 19 C38.10957031 18.45472656 38.21914063 17.90945312 38.33203125 17.34765625 C39.51257658 11.7328675 41.1084379 6.41674601 43 1 C46.3 1 49.6 1 53 1 C51.52037974 8.40588878 49.31186985 15.41980198 46.875 22.5625 C46.50246094 23.66658203 46.12992187 24.77066406 45.74609375 25.90820312 C44.83485692 28.60686605 43.91800356 31.3036314 43 34 C39.04 34 35.08 34 31 34 C30.32635339 31.91891315 29.66133202 29.8350329 29 27.75 C28.62875 26.58984375 28.2575 25.4296875 27.875 24.234375 C27 21 27 21 27 17 C26.34 17 25.68 17 25 17 C24.9175 17.94875 24.835 18.8975 24.75 19.875 C24.05650753 24.91575868 21.97849635 29.3409602 20 34 C16.37 34 12.74 34 9 34 C6.64694078 27.80506321 4.40262528 21.57991724 2.25 15.3125 C1.75693359 13.92708008 1.75693359 13.92708008 1.25390625 12.51367188 C0.94839844 11.61841797 0.64289063 10.72316406 0.328125 9.80078125 C0.0487207 8.99809814 -0.23068359 8.19541504 -0.51855469 7.3684082 C-1.07781846 4.61718209 -0.71359883 2.69272993 0 0 Z " fill="#E8BC0B" transform="translate(228,204)"/>
<path d="M0 0 C4.94672842 5.07039663 5.29573276 9.46078506 5.21484375 16.2734375 C4.82901229 21.16998942 3.13317617 23.92646468 -0.375 27.25 C-6.42896914 31.28597943 -11.88181427 31.65092554 -19 31 C-24.44870404 29.25230248 -27.78541808 25.60721838 -31 21 C-32.73265462 15.80203613 -32.44519351 11.4592454 -30.875 6.3125 C-28.18715389 1.56397187 -25.07317471 -1.05355068 -20.125 -3.3125 C-12.42678558 -5.00610717 -6.71898454 -4.10016773 0 0 Z M-21 9 C-22.24721924 12.66370652 -22.36297705 14.23947666 -20.6875 17.75 C-19.04861359 20.04566731 -19.04861359 20.04566731 -17 22 C-13.99252622 22.33955349 -11.90107722 22.55613536 -9 22 C-5.95333027 19.41033073 -5.11037751 17.90141636 -4.625 13.9375 C-4.99049222 11.0744776 -5.39002646 9.37259259 -7 7 C-12.41853314 3.38764457 -16.63711203 4.2631502 -21 9 Z " fill="#E8BC0C" transform="translate(220,208)"/>
<path d="M0 0 C3.320625 -0.0825 6.64125 -0.165 10.0625 -0.25 C11.09511963 -0.28641602 12.12773926 -0.32283203 13.19165039 -0.36035156 C19.34717015 -0.43397792 23.05178202 0.24119431 28 4 C30.7762738 7.87297865 30.71583705 12.40876927 30 17 C27.9375 19.8125 27.9375 19.8125 26 22 C26 25.91191437 29.0531899 29.73438305 31 33 C26.9444522 33.34433896 23.04313918 33.53765149 19 33 C16.43165951 30.31491676 15 28.77787347 15 25 C13.35 25 11.7 25 10 25 C10 27.64 10 30.28 10 33 C6.7 33 3.4 33 0 33 C0 22.11 0 11.22 0 0 Z M10 8 C9.979375 9.299375 9.95875 10.59875 9.9375 11.9375 C9.92589844 12.66839844 9.91429687 13.39929688 9.90234375 14.15234375 C9.79438816 16.01732141 9.79438816 16.01732141 11 17 C16.02499694 16.71530797 16.02499694 16.71530797 20 14 C19.83492354 11.42459787 19.83492354 11.42459787 19 9 C16.04335481 7.5216774 13.25770263 7.93967217 10 8 Z " fill="#E8BC0A" transform="translate(316,205)"/>
<path d="M0 0 C8.91 0 17.82 0 27 0 C27 2.64 27 5.28 27 8 C21.39 8 15.78 8 10 8 C10 9.32 10 10.64 10 12 C14.95 12 19.9 12 25 12 C25 14.64 25 17.28 25 20 C20.05 20 15.1 20 10 20 C10 21.65 10 23.3 10 25 C15.61 25 21.22 25 27 25 C27 27.64 27 30.28 27 33 C18.09 33 9.18 33 0 33 C0 22.11 0 11.22 0 0 Z " fill="#E6BD19" transform="translate(284,205)"/>
<path d="M0 0 C3.34125 -0.061875 6.6825 -0.12375 10.125 -0.1875 C11.68758545 -0.22846802 11.68758545 -0.22846802 13.28173828 -0.27026367 C19.51634535 -0.32602617 24.0595607 0.26234961 28.8125 4.6875 C30.52896632 8.0300923 31.12183874 11.280335 31 15 C29.49214371 19.20612545 27.85412986 21.7116104 24 24 C20.85069107 25.04976964 18.61185544 25.10131595 15.3125 25.0625 C14.31863281 25.05347656 13.32476562 25.04445312 12.30078125 25.03515625 C11.16189453 25.01775391 11.16189453 25.01775391 10 25 C10 27.64 10 30.28 10 33 C6.7 33 3.4 33 0 33 C0 22.11 0 11.22 0 0 Z M10 8 C10 10.97 10 13.94 10 17 C15.32170494 17.29562367 15.32170494 17.29562367 20 15 C20.5 12.5 20.5 12.5 20 10 C16.3558226 7.5705484 14.28758728 7.83820425 10 8 Z " fill="#E9BC04" transform="translate(155,205)"/>
<path d="M0 0 C8.91 0 17.82 0 27 0 C27 2.64 27 5.28 27 8 C21.39 8 15.78 8 10 8 C10 10.31 10 12.62 10 15 C14.95 15 19.9 15 25 15 C25 17.64 25 20.28 25 23 C20.05 23 15.1 23 10 23 C10 26.96 10 30.92 10 35 C6.7 35 3.4 35 0 35 C0 23.45 0 11.9 0 0 Z " fill="#23252D" transform="translate(215,261)"/>
<path d="M0 0 C9.9 0 19.8 0 30 0 C30 2.64 30 5.28 30 8 C26.7 8 23.4 8 20 8 C20 16.91 20 25.82 20 35 C16.7 35 13.4 35 10 35 C10 26.09 10 17.18 10 8 C6.7 8 3.4 8 0 8 C0 5.36 0 2.72 0 0 Z " fill="#23252D" transform="translate(258,261)"/>
<path d="M0 0 C3.3 0 6.6 0 10 0 C10 11.55 10 23.1 10 35 C6.7 35 3.4 35 0 35 C0 23.45 0 11.9 0 0 Z " fill="#23252D" transform="translate(245,261)"/>
<path d="M0 0 C3.34125 -0.061875 6.6825 -0.12375 10.125 -0.1875 C11.68758545 -0.22846802 11.68758545 -0.22846802 13.28173828 -0.27026367 C19.51634535 -0.32602617 24.0595607 0.26234961 28.8125 4.6875 C30.52896632 8.0300923 31.12183874 11.280335 31 15 C29.5098254 19.15680284 27.88659227 21.81379185 24 24 C23.01 24 22.02 24 21 24 C20.34 22.02 19.68 20.04 19 18 C16.03 18 13.06 18 10 18 C10 17.67 10 17.34 10 17 C12.97 16.34 15.94 15.68 19 15 C19 13.35 19 11.7 19 10 C16.36 9.34 13.72 8.68 11 8 C11.33 7.01 11.66 6.02 12 5 C17.75 6.875 17.75 6.875 20 8 C20 6.68 20 5.36 20 4 C20.99 3.67 21.98 3.34 23 3 C18.90942775 1.85002395 14.96717182 1.88944227 10.75 1.9375 C8.1925 1.958125 5.635 1.97875 3 2 C2.67 11.9 2.34 21.8 2 32 C4.31 32 6.62 32 9 32 C9.33 31.01 9.66 30.02 10 29 C10 30.32 10 31.64 10 33 C6.7 33 3.4 33 0 33 C0 22.11 0 11.22 0 0 Z " fill="#E7BC11" transform="translate(155,205)"/>
<path d="M0 0 C1.47436523 0.07734375 1.47436523 0.07734375 2.97851562 0.15625 C4.00267578 0.22070312 5.02683594 0.28515625 6.08203125 0.3515625 C7.63567383 0.43664062 7.63567383 0.43664062 9.22070312 0.5234375 C11.77934396 0.66492916 14.33700609 0.81634116 16.89453125 0.9765625 C16.89453125 2.9565625 16.89453125 4.9365625 16.89453125 6.9765625 C8.64453125 6.9765625 0.39453125 6.9765625 -8.10546875 6.9765625 C-8.10546875 5.3265625 -8.10546875 3.6765625 -8.10546875 1.9765625 C-4.7389507 -0.26778287 -3.88949887 -0.22482652 0 0 Z " fill="#EABC04" transform="translate(293.10546875,230.0234375)"/>
<path d="M0 0 C0 1.98 0 3.96 0 6 C-9.405 6.495 -9.405 6.495 -19 7 C-19.33 8.32 -19.66 9.64 -20 11 C-21.5625 9.9375 -21.5625 9.9375 -23 8 C-22.73471965 5.65795348 -22.40532761 3.32190979 -22 1 C-18.70837401 0.83252349 -15.41669287 0.66615639 -12.125 0.5 C-11.18785156 0.45230469 -10.25070312 0.40460938 -9.28515625 0.35546875 C-8.38925781 0.31035156 -7.49335938 0.26523438 -6.5703125 0.21875 C-5.74289551 0.17685547 -4.91547852 0.13496094 -4.06298828 0.09179688 C-2.70965236 0.03157743 -1.35467505 0 0 0 Z " fill="#E9BD02" transform="translate(309,205)"/>
<path d="M0 0 C2.97 0.33 5.94 0.66 9 1 C9.66 3.31 10.32 5.62 11 8 C9.5 6.6875 9.5 6.6875 8 5 C8 4.01 8 3.02 8 2 C4.8447007 3.62117889 4.8447007 3.62117889 4.453125 6.12890625 C4.38609375 6.93199219 4.3190625 7.73507813 4.25 8.5625 C4.17265625 9.36816406 4.0953125 10.17382812 4.015625 11.00390625 C4.01046875 11.66261719 4.0053125 12.32132813 4 13 C4.33 13.33 4.66 13.66 5 14 C5.04063832 15.66617115 5.042721 17.33388095 5 19 C5.66 19 6.32 19 7 19 C7.33 19.66 7.66 20.32 8 21 C8.66 21 9.32 21 10 21 C10 21.66 10 22.32 10 23 C10.66 23.33 11.32 23.66 12 24 C11.34 24.99 10.68 25.98 10 27 C9.61500109 28.65549531 9.27206865 30.3222433 9 32 C12.3 32.33 15.6 32.66 19 33 C19.33 32.01 19.66 31.02 20 30 C20.33 30.99 20.66 31.98 21 33 C20 34 20 34 17.49609375 34.09765625 C16.48675781 34.08605469 15.47742188 34.07445312 14.4375 34.0625 C13.42558594 34.05347656 12.41367188 34.04445312 11.37109375 34.03515625 C10.19740234 34.01775391 10.19740234 34.01775391 9 34 C6.64694078 27.80506321 4.40262528 21.57991724 2.25 15.3125 C1.75693359 13.92708008 1.75693359 13.92708008 1.25390625 12.51367188 C0.94839844 11.61841797 0.64289063 10.72316406 0.328125 9.80078125 C0.0487207 8.99809814 -0.23068359 8.19541504 -0.51855469 7.3684082 C-1.07781846 4.61718209 -0.71359883 2.69272993 0 0 Z " fill="#E4BD1E" transform="translate(228,204)"/>
<path d="M0 0 C0.94875 0.350625 1.8975 0.70125 2.875 1.0625 C2.545 2.3825 2.215 3.7025 1.875 5.0625 C0.555 5.3925 -0.765 5.7225 -2.125 6.0625 C-2.125 10.0225 -2.125 13.9825 -2.125 18.0625 C-3.445 17.7325 -4.765 17.4025 -6.125 17.0625 C-6.125 15.7425 -6.125 14.4225 -6.125 13.0625 C-7.775 13.0625 -9.425 13.0625 -11.125 13.0625 C-11.125 11.7425 -11.125 10.4225 -11.125 9.0625 C-10.465 9.0625 -9.805 9.0625 -9.125 9.0625 C-9.125 7.4125 -9.125 5.7625 -9.125 4.0625 C-8.465 4.0625 -7.805 4.0625 -7.125 4.0625 C-6.691875 3.1034375 -6.691875 3.1034375 -6.25 2.125 C-4.42772516 -1.2158372 -3.64294223 -1.09288267 0 0 Z " fill="#EABC03" transform="translate(200.125,208.9375)"/>
<path d="M0 0 C3.34125 -0.061875 6.6825 -0.12375 10.125 -0.1875 C11.68758545 -0.22846802 11.68758545 -0.22846802 13.28173828 -0.27026367 C18.59505055 -0.31778608 22.44728289 -0.08241339 27 3 C27.33 3.66 27.66 4.32 28 5 C26.68 5 25.36 5 24 5 C23.67 4.34 23.34 3.68 23 3 C19.00286009 1.6402644 14.9197662 1.88998249 10.75 1.9375 C8.1925 1.958125 5.635 1.97875 3 2 C2.67 11.9 2.34 21.8 2 32 C4.31 32 6.62 32 9 32 C9.33 31.01 9.66 30.02 10 29 C10 30.32 10 31.64 10 33 C6.7 33 3.4 33 0 33 C0 22.11 0 11.22 0 0 Z " fill="#E1BC2F" transform="translate(155,205)"/>
<path d="M0 0 C0.66 0 1.32 0 2 0 C1.979375 0.94875 1.95875 1.8975 1.9375 2.875 C1.77448174 5.90666283 1.77448174 5.90666283 3 8 C4.98 7.67 6.96 7.34 9 7 C8.78087133 10.83475164 8.05971606 11.94164113 5.25 14.6875 C0.88260859 17.79506696 -1.62811836 19 -7 19 C-7 18.34 -7 17.68 -7 17 C-5.02 17 -3.04 17 -1 17 C-1 15.02 -1 13.04 -1 11 C-1.66 11 -2.32 11 -3 11 C-6 11 -9 11 -12 11 C-12 10.67 -12 10.34 -12 10 C-10.1128125 9.87625 -10.1128125 9.87625 -8.1875 9.75 C-4.78296146 9.31882453 -4.78296146 9.31882453 -2.0625 7.25 C-0.91825788 4.82689905 -0.36789751 2.64886204 0 0 Z " fill="#E4BC17" transform="translate(215,220)"/>
<path d="M0 0 C3.320625 -0.0825 6.64125 -0.165 10.0625 -0.25 C11.09511963 -0.28641602 12.12773926 -0.32283203 13.19165039 -0.36035156 C19.34570807 -0.43396043 23.01333935 0.31420734 28 4 C28.9375 6.25 28.9375 6.25 29 8 C28.5875 7.525625 28.175 7.05125 27.75 6.5625 C25.817815 4.83733482 24.51807725 4.43415125 22 4 C21.67 4.66 21.34 5.32 21 6 C20.67 5.34 20.34 4.68 20 4 C18.68 4.33 17.36 4.66 16 5 C15.67 4.34 15.34 3.68 15 3 C15.66 3 16.32 3 17 3 C17 2.34 17 1.68 17 1 C11.72 1 6.44 1 1 1 C1.33 11.56 1.66 22.12 2 33 C1.34 33 0.68 33 0 33 C0 22.11 0 11.22 0 0 Z " fill="#EAC020" transform="translate(316,205)"/>
<path d="M0 0 C0.66 0 1.32 0 2 0 C2 2.64 2 5.28 2 8 C-3.61 8 -9.22 8 -15 8 C-15.33 9.32 -15.66 10.64 -16 12 C-16 11.01 -16 10.02 -16 9 C-16.66 9 -17.32 9 -18 9 C-18.33 9.99 -18.66 10.98 -19 12 C-19 10.35 -19 8.7 -19 7 C-15.23699626 5.74566542 -11.72789091 5.89304578 -7.8125 5.9375 C-7.06291016 5.94201172 -6.31332031 5.94652344 -5.54101562 5.95117188 C-3.69397617 5.96293646 -1.84697787 5.98087135 0 6 C0 4.02 0 2.04 0 0 Z " fill="#E0BC2F" transform="translate(309,205)"/>
<path d="M0 0 C0.66 0 1.32 0 2 0 C-1.02030457 15.03045685 -1.02030457 15.03045685 -5 21 C-5.99 20.67 -6.98 20.34 -8 20 C-8 18.35 -8 16.7 -8 15 C-8.66 15 -9.32 15 -10 15 C-10 12.69 -10 10.38 -10 8 C-8 11 -8 11 -6 17 C-4.02 11.39 -2.04 5.78 0 0 Z " fill="#E1B928" transform="translate(249,205)"/>
<path d="M0 0 C2.3828125 -0.29296875 2.3828125 -0.29296875 5.125 -0.1875 C6.03507812 -0.16042969 6.94515625 -0.13335937 7.8828125 -0.10546875 C8.58148438 -0.07066406 9.28015625 -0.03585938 10 0 C10 1.98 10 3.96 10 6 C8.18674449 5.88648483 6.37436643 5.75887039 4.5625 5.625 C3.04849609 5.52058594 3.04849609 5.52058594 1.50390625 5.4140625 C0.67761719 5.27742187 -0.14867187 5.14078125 -1 5 C-1.33 4.34 -1.66 3.68 -2 3 C-1.34 2.01 -0.68 1.02 0 0 Z " fill="#E9BD02" transform="translate(297,219)"/>
<path d="M0 0 C0.33 1.32 0.66 2.64 1 4 C2.65 4 4.3 4 6 4 C6 4.66 6 5.32 6 6 C4.68 6 3.36 6 2 6 C2.33 7.98 2.66 9.96 3 12 C4.32 12 5.64 12 7 12 C7.99 14.31 8.98 16.62 10 19 C5.78771439 17.43989422 3.65453155 14.5154607 1 11 C-0.28317892 7.15046324 -0.06643637 4.05261865 0 0 Z " fill="#E4BA25" transform="translate(188,218)"/>
<path d="M0 0 C0.33 0 0.66 0 1 0 C1.04241723 2.33294775 1.04092937 4.66702567 1 7 C0 8 0 8 -2.06640625 8.09765625 C-2.89011719 8.08605469 -3.71382813 8.07445312 -4.5625 8.0625 C-5.38878906 8.05347656 -6.21507812 8.04445312 -7.06640625 8.03515625 C-7.70449219 8.02355469 -8.34257812 8.01195312 -9 8 C-8.67 6.68 -8.34 5.36 -8 4 C-5.03 4.495 -5.03 4.495 -2 5 C-1.34 3.35 -0.68 1.7 0 0 Z " fill="#EBBB04" transform="translate(270,229)"/>
<path d="M0 0 C3.3 0.66 6.6 1.32 10 2 C10 2.66 10 3.32 10 4 C10.66 4 11.32 4 12 4 C11.67 5.32 11.34 6.64 11 8 C10.67 7.01 10.34 6.02 10 5 C9.37351563 4.93941406 8.74703125 4.87882813 8.1015625 4.81640625 C7.28429687 4.73261719 6.46703125 4.64882812 5.625 4.5625 C4.40683594 4.44068359 4.40683594 4.44068359 3.1640625 4.31640625 C1 4 1 4 -1 3 C-0.67 2.01 -0.34 1.02 0 0 Z " fill="#E2BB21" transform="translate(203,210)"/>
<path d="M0 0 C1.32 0.66 2.64 1.32 4 2 C3.34 2.66 2.68 3.32 2 4 C1.53993654 6.20250992 1.53993654 6.20250992 1.375 8.625 C1.30023438 9.44226563 1.22546875 10.25953125 1.1484375 11.1015625 C1.09945312 11.72804687 1.05046875 12.35453125 1 13 C0.34 13 -0.32 13 -1 13 C-1.02686553 11.02090602 -1.04633375 9.04171029 -1.0625 7.0625 C-1.07410156 5.96035156 -1.08570313 4.85820312 -1.09765625 3.72265625 C-1 1 -1 1 0 0 Z " fill="#E2BD20" transform="translate(198,213)"/>
<path d="M0 0 C4.7517398 0.43197635 6.92000054 1.32769295 10 5 C8.68 5 7.36 5 6 5 C5.67 4.34 5.34 3.68 5 3 C3.35636866 2.27840576 1.68949614 1.60648579 0 1 C0 0.67 0 0.34 0 0 Z " fill="#E0BC2F" transform="translate(173,205)"/>
</svg>
